# xmcd
#
# Track frame offsets:
#	150
#	9906
#	25162
#	48744
#	71694
#	87428
#	99949
#	120837
#	130090
#	147676
#	162655
#	176462
#	190663
#	201252
#	215416
#	233003
#	248084
#	265997
#	289520
#	306058
#
# Disc length: 4235 seconds
# Revision: 0
# Processed by: cddbd v1.5.2PL0 Copyright (c) Steve Scherf et al.
# Submitted via: dBpowerAMP V12.0
#
DISCID=17108914
DTITLE=Jennifer Crusie - The Cinderella Deal
DYEAR=1900
DGENRE=AudioBook
TTITLE0=01a
TTITLE1=01b
TTITLE2=01c
TTITLE3=01d
TTITLE4=01e
TTITLE5=01f
TTITLE6=01g
TTITLE7=01h
TTITLE8=01i
TTITLE9=02a
TTITLE10=02b
TTITLE11=02c
TTITLE12=02d
TTITLE13=02e
TTITLE14=02f
TTITLE15=02g
TTITLE16=02h
TTITLE17=02i
TTITLE18=02j
TTITLE19=02K (silence)
EXTD=
EXTT0=
EXTT1=
EXTT2=
EXTT3=
EXTT4=
EXTT5=
EXTT6=
EXTT7=
EXTT8=
EXTT9=
EXTT10=
EXTT11=
EXTT12=
EXTT13=
EXTT14=
EXTT15=
EXTT16=
EXTT17=
EXTT18=
EXTT19=
PLAYORDER=
